<mxfile host="app.diagrams.net" modified="2023-08-18T13:55:40.816Z" agent="Mozilla/5.0 (Macintosh; Intel Mac OS X 10_15_7) AppleWebKit/537.36 (KHTML, like Gecko) Chrome/115.0.0.0 Safari/537.36" version="21.6.5" etag="_L4UL9NHeG9JZuxtPww0" type="github">
  <diagram name="Page-1" id="T-aSs1Qq5LDN5PWn2Ixg">
    <mxGraphModel>
      <root>
        <mxCell id="0" />
        <mxCell id="1" parent="0" />
      </root>
    </mxGraphModel>
  </diagram>
</mxfile>
